# xmcd
#
# Track frame offsets: 
#        150
#        13657
#        25150
#        38560
#        51202
#        64785
#        78650
#        92252
#        106957
#        121240
#        134687
#        147275
#        160492
#        172852
#        187009
#        199695
#        212572
#        226065
#
# Disc length: 3196 seconds
#
# Revision: 3
# Processed by: cddbd v1.5.1PL0 Copyright (c) Steve Scherf et al.
# Submitted via: ExactAudioCopy v0.90b4
#
DISCID=ed0c7a12
DTITLE=Sonny Boy Williamson I - The Blues - Chicago 1937-1945 [CD1]
DYEAR=2002
DGENRE=Blues
TTITLE0=Good Morning, Little Schoolgirl
TTITLE1=Got The Bottle And Gone
TTITLE2=Sugar Mama Blues
TTITLE3=Black Gal Blues
TTITLE4=Moonshine
TTITLE5=My Baby, I've Been Your Slave
TTITLE6=Lord Oh Lord Blues
TTITLE7=Deep Down In the Ground
TTITLE8=Goodbye Red
TTITLE9=My Little Baby
TTITLE10=Good Gravy
TTITLE11=Joe Louis And John Henry Blues
TTITLE12=Life Time Blues
TTITLE13=Honey Bee Blues
TTITLE14=I Been Dealing With The Devil
TTITLE15=Decoration Day Blues No. 2
TTITLE16=My Little Machine
TTITLE17=Western Union Man
EXTD=
EXTT0=
EXTT1=
EXTT2=
EXTT3=
EXTT4=
EXTT5=
EXTT6=
EXTT7=
EXTT8=
EXTT9=
EXTT10=
EXTT11=
EXTT12=
EXTT13=
EXTT14=
EXTT15=
EXTT16=
EXTT17=
PLAYORDER=
